<svg width="1033" height="833" viewBox="0 0 1033 833" fill="none" xmlns="http://www.w3.org/2000/svg">
<path opacity="0.1" d="M530.99 832.64C788.62 832.64 997.47 646.247 997.47 416.32C997.47 186.393 788.62 0 530.99 0C273.36 0 64.51 186.393 64.51 416.32C64.51 646.247 273.36 832.64 530.99 832.64Z" fill="#F50062"/>
<path opacity="0.1" d="M172 655.94C266.993 655.94 344 644.004 344 629.28C344 614.556 266.993 602.62 172 602.62C77.007 602.62 0 614.556 0 629.28C0 644.004 77.007 655.94 172 655.94Z" fill="#F50062"/>
<path opacity="0.1" d="M254.67 782.95C291.618 782.95 321.57 776.763 321.57 769.13C321.57 761.497 291.618 755.31 254.67 755.31C217.722 755.31 187.77 761.497 187.77 769.13C187.77 776.763 217.722 782.95 254.67 782.95Z" fill="#F50062"/>
<path opacity="0.1" d="M711.8 729.78C748.748 729.78 778.7 723.593 778.7 715.96C778.7 708.328 748.748 702.14 711.8 702.14C674.852 702.14 644.9 708.328 644.9 715.96C644.9 723.593 674.852 729.78 711.8 729.78Z" fill="#F50062"/>
<path opacity="0.1" d="M484.79 718.18C544.873 718.18 593.58 709.929 593.58 699.75C593.58 689.571 544.873 681.32 484.79 681.32C424.707 681.32 376 689.571 376 699.75C376 709.929 424.707 718.18 484.79 718.18Z" fill="#F50062"/>
<path opacity="0.1" d="M805.34 644.06C930.659 644.06 1032.25 628.148 1032.25 608.52C1032.25 588.892 930.659 572.98 805.34 572.98C680.021 572.98 578.43 588.892 578.43 608.52C578.43 628.148 680.021 644.06 805.34 644.06Z" fill="#F50062"/>
<path d="M47.0301 546.49C41.933 556.406 39.5524 567.494 40.1303 578.629C40.7082 589.763 44.2239 600.545 50.3201 609.88C52.3201 612.88 54.1601 615.04 55.6301 615.61C62.6801 618.38 76.8001 625.19 76.8001 625.19L110.8 611.83C110.8 611.83 116.32 582.63 121.54 557.56C125.1 540.46 128.54 525.29 129.95 522.63C133.47 516.08 129.95 444.77 129.95 444.77C129.95 444.77 95.9501 442.49 86.6001 468.7L82.5101 476.7L47.0301 546.49Z" fill="#A8A8A8"/>
<path opacity="0.1" d="M92.17 554.37C112.84 578.06 121.56 557.57 121.56 557.57C125.12 540.47 128.56 525.3 129.97 522.64C133.49 516.09 129.97 444.78 129.97 444.78C129.97 444.78 95.97 442.5 86.62 468.71L82.53 476.71C79.91 497.68 77.32 537.32 92.17 554.37Z" fill="white"/>
<path d="M96.71 620.4L216.71 606.54L238.12 465.66L221.93 429.07C215.09 413.488 205.618 399.199 193.93 386.83C185.78 378.24 175.93 369.98 165.57 365.83C164.154 365.26 162.709 364.765 161.24 364.35C159.551 363.837 157.766 363.73 156.028 364.038C154.29 364.345 152.65 365.059 151.24 366.12C136.44 376.61 131.15 421.21 129.44 442.68C128.736 451.503 127.545 460.279 125.87 468.97L96.71 620.4Z" fill="#A8A8A8"/>
<path opacity="0.1" d="M176.6 464.14L151.6 525.64C164.7 516.06 184.11 463.89 184.11 463.89L201.5 523.37L187.64 460.68C189.669 447.066 190.259 433.277 189.4 419.54C188.3 403.8 173.53 378.54 165.51 365.82C164.094 365.249 162.649 364.755 161.18 364.34C159.491 363.827 157.706 363.72 155.968 364.028C154.23 364.335 152.59 365.049 151.18 366.11C157.48 378.76 173.23 410.39 178.03 419.79C184.12 431.63 176.6 464.14 176.6 464.14Z" fill="white"/>
<path d="M197.01 625.19H262.12C264.798 625.191 267.449 624.647 269.91 623.591C272.372 622.535 274.593 620.99 276.438 619.049C278.284 617.108 279.715 614.812 280.645 612.301C281.576 609.789 281.986 607.115 281.85 604.44C280.41 576.52 276.76 526.74 268.08 495.14C263.39 478.09 257.94 469.14 252.94 464.73C250.595 462.467 247.568 461.043 244.33 460.68C241.874 460.468 239.415 461.065 237.33 462.38C225.24 473.97 211.12 534.96 211.12 534.96L197.01 625.19Z" fill="#A8A8A8"/>
<path opacity="0.1" d="M257.12 571.1C259.8 578.53 260.86 587.1 257.12 595.45L242.61 602.62C242.61 602.62 203.61 586.09 208.35 552.21C208.35 552.21 209.63 545.21 223.06 545.75C230.613 546.115 237.886 548.721 243.952 553.236C250.018 557.751 254.602 563.97 257.12 571.1V571.1Z" fill="white"/>
<path opacity="0.1" d="M241.62 482.04C241.17 470.16 247.62 466.04 252.95 464.73C250.605 462.467 247.578 461.043 244.34 460.68C240.63 463.785 238.001 467.986 236.83 472.68L223.23 538.97C223.23 538.97 242.38 501.95 241.62 482.04Z" fill="white"/>
<path d="M179.88 534.46L212.12 578.56L217.71 614.96L196.99 625.19L167.12 631.79C164.243 632.429 161.285 632.621 158.35 632.36L76.8401 625.19L87.9301 599.48L126.23 545.71L179.88 534.46Z" fill="#A8A8A8"/>
<path opacity="0.1" d="M167.4 519.32C167.4 519.32 189.4 520.83 181.14 558.63C172.88 596.43 87.8899 599.46 87.8899 599.46C87.8899 599.46 105.95 567.46 133.73 544.53C136.85 541.96 139.86 539.28 142.73 536.42C149.12 530.03 161.34 518.8 167.4 519.32Z" fill="white"/>
<path opacity="0.1" d="M187.19 547.82C187.19 547.82 217 574.95 214.19 616.7Z" fill="black"/>
<path opacity="0.1" d="M237.34 462.38C237.34 462.38 206.06 503.98 202.55 567.99Z" fill="black"/>
<path opacity="0.1" d="M129.98 444.75C129.98 444.75 145.12 513.5 107.32 565.32Z" fill="black"/>
<path d="M405.73 699.37H568.87C570.447 699.362 571.995 698.945 573.363 698.161C574.732 697.378 575.874 696.253 576.679 694.897C577.485 693.542 577.925 692 577.959 690.424C577.992 688.847 577.617 687.289 576.87 685.9L495.34 534.42C494.559 532.968 493.399 531.754 491.983 530.909C490.567 530.063 488.949 529.616 487.3 529.616C485.651 529.616 484.033 530.063 482.617 530.909C481.202 531.754 480.041 532.968 479.26 534.42L397.69 685.9C396.941 687.292 396.566 688.854 396.602 690.434C396.637 692.014 397.081 693.558 397.891 694.915C398.701 696.272 399.849 697.395 401.223 698.176C402.597 698.957 404.15 699.368 405.73 699.37V699.37ZM497.68 671.69H476.92V650.94H497.68V671.69ZM497.68 637.1H476.92V595.59H497.68V637.1Z" fill="#464353"/>
<path opacity="0.1" d="M405.73 699.37H568.87C570.447 699.362 571.995 698.945 573.363 698.161C574.732 697.378 575.874 696.253 576.679 694.897C577.485 693.542 577.925 692 577.959 690.424C577.992 688.847 577.617 687.289 576.87 685.9L495.34 534.42C494.559 532.968 493.399 531.754 491.983 530.909C490.567 530.063 488.949 529.616 487.3 529.616C485.651 529.616 484.033 530.063 482.617 530.909C481.202 531.754 480.041 532.968 479.26 534.42L397.69 685.9C396.941 687.292 396.566 688.854 396.602 690.434C396.637 692.014 397.081 693.558 397.891 694.915C398.701 696.272 399.849 697.395 401.223 698.176C402.597 698.957 404.15 699.368 405.73 699.37V699.37ZM497.68 671.69H476.92V650.94H497.68V671.69ZM497.68 637.1H476.92V595.59H497.68V637.1Z" fill="black"/>
<path d="M405.73 704.37H568.87C570.447 704.362 571.995 703.945 573.363 703.161C574.732 702.378 575.874 701.253 576.679 699.897C577.485 698.542 577.925 697 577.959 695.424C577.992 693.847 577.617 692.289 576.87 690.9L495.34 539.42C494.559 537.968 493.399 536.754 491.983 535.909C490.567 535.063 488.949 534.616 487.3 534.616C485.651 534.616 484.033 535.063 482.617 535.909C481.202 536.754 480.041 537.968 479.26 539.42L397.69 690.9C396.941 692.292 396.566 693.854 396.602 695.434C396.637 697.014 397.081 698.558 397.891 699.915C398.701 701.272 399.849 702.395 401.223 703.176C402.597 703.957 404.15 704.368 405.73 704.37V704.37ZM497.68 676.69H476.92V655.94H497.68V676.69ZM497.68 642.1H476.92V600.59H497.68V642.1Z" fill="#464353"/>
<path d="M695.32 511.08C695.32 511.08 672.12 541.61 652.87 541.86C633.62 542.11 622.32 554.72 631.46 562.6C640.6 570.48 740.2 558.1 740.2 558.1C740.2 558.1 741.14 520.58 732.51 515.1C723.88 509.62 695.32 511.08 695.32 511.08Z" fill="#444176"/>
<path d="M944.77 547.73C944.77 547.73 948.32 571.91 937.35 588.4C926.38 604.89 957.17 611.25 957.17 611.25C957.17 611.25 979.54 617.48 981.17 595.38C982.8 573.28 982.27 556.38 980.17 554.58C978.07 552.78 976.32 540.35 976.32 540.35L944.77 547.73Z" fill="#444176"/>
<path d="M593.57 593.4C593.57 593.4 592.76 515.19 670.15 483.4L688.12 449.21L696.74 428.21C699.861 420.604 704.772 413.864 711.055 408.561C717.338 403.258 724.808 399.549 732.83 397.75L746.77 394.62L751.08 376.46C753.376 366.753 758.464 357.931 765.717 351.082C772.969 344.233 782.067 339.658 791.89 337.92C800.367 336.346 808.968 335.543 817.59 335.52C821.405 335.577 825.14 336.621 828.432 338.548C831.724 340.476 834.462 343.222 836.38 346.52V346.52C836.38 346.52 909.7 345.71 912.95 385.63C912.95 385.63 920.29 422.28 930.88 428.8C930.88 428.8 948.8 424.73 966.72 450.8L986.27 517.6C986.27 517.6 1037.59 565.66 1022.11 609.6C1022.11 609.6 1000.93 639.74 893.4 619.37C893.4 619.37 778.54 654.37 717.4 606.37C717.39 606.43 615.57 625.98 593.57 593.4Z" fill="#A8A8A8"/>
<path opacity="0.1" d="M644.89 581.18C644.89 581.18 661.19 558.37 660.37 542.07C659.55 525.77 664.21 486.07 664.21 486.07" stroke="black" stroke-miterlimit="10"/>
<path opacity="0.1" d="M704.36 520.08C704.36 520.08 720.65 489.94 719.02 473.65C719.02 473.65 736.13 442.65 749.16 445.13" stroke="black" stroke-miterlimit="10"/>
<path opacity="0.1" d="M793.97 434.54C793.97 434.54 838.77 418.25 841.22 405.22" stroke="black" stroke-miterlimit="10"/>
<path opacity="0.1" d="M810.26 472.02C810.26 472.02 857.51 450.84 857.51 445.13H881.12C881.12 445.13 915.34 489.94 911.27 509.49" stroke="black" stroke-miterlimit="10"/>
<path opacity="0.1" d="M865.66 504.6C865.66 504.6 820.04 501.34 803.74 514.38C787.44 527.42 758.12 533.93 758.12 533.93C758.12 533.93 741.01 570.59 734.49 577.1C727.97 583.61 717.38 606.43 717.38 606.43" stroke="black" stroke-miterlimit="10"/>
<path opacity="0.1" d="M865.66 547.78C865.66 547.78 870.54 564.88 877.06 574.66C883.58 584.44 893.35 619.46 893.35 619.46" stroke="black" stroke-miterlimit="10"/>
<path opacity="0.1" d="M942.23 597.47C942.23 597.47 952.57 626.24 961.66 626.52" stroke="black" stroke-miterlimit="10"/>
<path opacity="0.1" d="M874.5 473.98C874.5 473.98 901.36 481.24 912.59 498.83C923.82 516.42 958.12 532.37 958.12 532.37" stroke="black" stroke-miterlimit="10"/>
<path opacity="0.1" d="M886.02 387.32C886.02 387.32 886.02 424.79 896.61 424.79C907.2 424.79 930.83 428.86 930.83 428.86" stroke="black" stroke-miterlimit="10"/>
<path opacity="0.1" d="M834.12 342.82C834.12 342.82 831.41 407.55 817.56 424.31" stroke="black" stroke-miterlimit="10"/>
<g opacity="0.05">
<path opacity="0.05" d="M984.59 516.82L965.04 450.02C947.12 423.95 929.2 428.02 929.2 428.02C918.61 421.5 911.28 384.84 911.28 384.84C908.02 344.92 834.7 345.74 834.7 345.74C832.779 342.436 830.035 339.686 826.735 337.758C823.435 335.83 819.691 334.791 815.87 334.74C812.41 334.74 808.87 334.85 805.33 335.14C807.33 335.34 809.247 335.623 811.08 335.99L816.78 345.77C816.78 345.77 890.09 344.95 893.35 384.87C893.35 384.87 900.69 421.53 911.28 428.05C911.28 428.05 929.2 423.97 947.12 450.05L966.67 516.85C966.67 516.85 1017.99 564.91 1002.51 608.85C1002.51 608.85 992.06 623.72 948.59 625.52C1007.2 627.67 1020.43 608.85 1020.43 608.85C1035.91 564.88 984.59 516.82 984.59 516.82Z" fill="black"/>
<path opacity="0.05" d="M697.84 605.61C680.595 608.713 663.157 610.621 645.65 611.32C666.06 612.1 687.29 609.89 700.97 608.01C699.91 607.2 698.87 606.42 697.84 605.61Z" fill="black"/>
<path opacity="0.05" d="M873.8 618.65C848.721 625.684 822.906 629.765 796.88 630.81C834.43 632.17 870 624.34 884.66 620.58C881.12 619.99 877.53 619.32 873.8 618.65Z" fill="black"/>
</g>
<path d="M222.85 745.71C222.85 745.71 245.26 745.02 252.01 740.21C258.76 735.4 286.47 729.66 288.15 737.37C289.83 745.08 321.82 775.72 296.52 775.93C271.22 776.14 237.75 771.99 231.01 767.88C224.27 763.77 222.85 745.71 222.85 745.71Z" fill="#A8A8A8"/>
<path opacity="0.2" d="M296.98 773.24C271.68 773.45 238.2 769.3 231.46 765.24C226.33 762.11 224.28 750.89 223.6 745.72H222.85C222.85 745.72 224.27 763.79 231.01 767.89C237.75 771.99 271.23 776.14 296.52 775.94C303.83 775.88 306.35 773.28 306.21 769.43C305.2 771.75 302.41 773.2 296.98 773.24Z" fill="black"/>
<path d="M769.19 689.51C769.19 689.51 742.8 684.23 735.77 677.19C728.74 670.15 697.07 657.85 693.55 666.64C690.03 675.43 646.06 705.34 675.96 710.64C705.86 715.94 746.32 717.64 755.12 714.16C763.92 710.68 769.19 689.51 769.19 689.51Z" fill="#A8A8A8"/>
<path opacity="0.2" d="M675.96 707.32C705.87 712.59 746.32 714.32 755.12 710.83C761.81 708.15 766.47 695.28 768.31 689.29L769.19 689.48C769.19 689.48 763.91 710.58 755.12 714.1C746.33 717.62 705.87 715.86 675.96 710.58C667.33 709.06 664.86 705.48 665.79 700.96C666.53 703.94 669.54 706.21 675.96 707.32Z" fill="black"/>
<path d="M513.606 295.355C463.597 289.355 424.296 321.424 416.374 406.301C407.397 502.495 440.926 532.266 490.935 538.265C540.945 544.265 581.592 520.941 590.344 427.171C599.699 326.935 563.615 301.354 513.606 295.355ZM494.244 506.375C459.607 502.22 443.661 477.01 449.879 410.383C455.366 351.595 477.096 322.854 511.733 327.009C546.371 331.164 563.307 353.788 556.827 423.213C550.766 488.16 528.882 510.53 494.244 506.375Z" fill="#2F2E41"/>
<path d="M381.336 457.273L360.66 454.792L367.102 385.761C367.444 382.094 366.488 378.424 364.443 375.557C362.398 372.69 359.433 370.861 356.199 370.473L351.354 369.892C349.752 369.7 348.133 369.867 346.589 370.384C345.045 370.902 343.606 371.759 342.353 372.907C341.101 374.055 340.061 375.471 339.292 377.075C338.522 378.678 338.039 380.438 337.87 382.254L331.427 451.285L273.105 444.289C271.905 444.145 270.759 443.652 269.776 442.857C268.794 442.063 268.01 440.994 267.499 439.755C266.989 438.516 266.769 437.148 266.862 435.784C266.956 434.42 267.358 433.107 268.031 431.971L342.12 306.919C343.044 305.36 343.679 303.605 343.988 301.76C344.297 299.915 344.273 298.018 343.917 296.183C343.562 294.349 342.882 292.615 341.919 291.087C340.956 289.559 339.73 288.268 338.315 287.291L334.853 284.903C332.165 283.049 328.951 282.437 325.876 283.195C322.802 283.952 320.101 286.021 318.334 288.972L228.148 439.612C226.612 442.177 225.658 445.132 225.37 448.215V448.215C225.14 450.677 225.341 453.166 225.959 455.54C226.578 457.914 227.603 460.127 228.976 462.052C230.349 463.977 232.043 465.576 233.961 466.759C235.879 467.942 237.984 468.685 240.155 468.945L328.787 479.578L324.713 523.229C324.51 525.405 324.686 527.605 325.233 529.704C325.78 531.803 326.686 533.759 327.9 535.46C329.114 537.162 330.611 538.576 332.307 539.621C334.002 540.667 335.863 541.323 337.782 541.554L337.782 541.554C339.702 541.784 341.642 541.583 343.493 540.963C345.345 540.343 347.07 539.316 348.571 537.94C350.071 536.564 351.319 534.866 352.241 532.944C353.163 531.022 353.742 528.912 353.945 526.736L358.019 483.085L378.696 485.565C382.005 485.962 385.318 484.852 387.905 482.48C390.493 480.108 392.143 476.668 392.493 472.916V472.916C392.844 469.164 391.865 465.408 389.772 462.474C387.68 459.541 384.646 457.67 381.336 457.273V457.273Z" fill="#F50062"/>
<path d="M764.212 503.204L743.535 500.724L749.978 431.692C750.32 428.026 749.363 424.355 747.319 421.488C745.274 418.621 742.308 416.793 739.074 416.405L734.229 415.823C732.628 415.631 731.009 415.799 729.465 416.316C727.92 416.833 726.481 417.69 725.229 418.838C723.977 419.986 722.936 421.402 722.167 423.006C721.398 424.61 720.915 426.37 720.745 428.185L714.303 497.217L655.981 490.22C654.781 490.076 653.634 489.583 652.652 488.789C651.67 487.995 650.885 486.926 650.375 485.687C649.864 484.447 649.645 483.079 649.738 481.715C649.831 480.352 650.234 479.038 650.906 477.903L724.996 352.851C725.919 351.292 726.555 349.537 726.864 347.692C727.173 345.847 727.149 343.949 726.793 342.115C726.437 340.281 725.757 338.547 724.795 337.019C723.832 335.491 722.606 334.199 721.19 333.223L717.729 330.835C715.041 328.981 711.827 328.369 708.752 329.126C705.677 329.884 702.977 331.952 701.21 334.904L611.023 485.544C609.487 488.109 608.533 491.064 608.246 494.147V494.147C607.782 499.119 609.079 504.096 611.851 507.984C614.624 511.871 618.645 514.351 623.031 514.877L711.662 525.509L707.588 569.161C707.178 573.556 708.324 577.955 710.776 581.392C713.227 584.828 716.781 587.02 720.658 587.485V587.485C724.534 587.95 728.415 586.65 731.446 583.872C734.477 581.093 736.41 577.062 736.821 572.667L740.895 529.016L761.571 531.497C764.88 531.894 768.193 530.784 770.781 528.412C773.368 526.04 775.019 522.599 775.369 518.847V518.847C775.719 515.096 774.74 511.34 772.648 508.406C770.555 505.472 767.521 503.601 764.212 503.204Z" fill="#F50062"/>
<path d="M387.795 449.874L367.118 447.393L373.561 378.361C373.73 376.546 373.583 374.71 373.126 372.96C372.67 371.209 371.914 369.577 370.902 368.157C369.889 366.738 368.64 365.558 367.225 364.686C365.811 363.814 364.258 363.266 362.657 363.074L357.812 362.493C354.578 362.105 351.341 363.189 348.812 365.507C346.283 367.826 344.67 371.188 344.328 374.855L337.886 443.886L279.564 436.89C278.364 436.746 277.217 436.253 276.235 435.458C275.253 434.664 274.468 433.595 273.958 432.356C273.447 431.116 273.228 429.748 273.321 428.385C273.414 427.021 273.817 425.708 274.489 424.572L348.579 299.52C349.502 297.961 350.138 296.206 350.447 294.361C350.756 292.516 350.732 290.619 350.376 288.784C350.02 286.95 349.341 285.216 348.378 283.688C347.415 282.16 346.189 280.868 344.773 279.892L341.312 277.504C338.624 275.65 335.41 275.038 332.335 275.796C329.26 276.553 326.56 278.621 324.793 281.573L234.606 432.213C233.07 434.778 232.116 437.733 231.829 440.816V440.816C231.365 445.788 232.662 450.765 235.434 454.653C238.207 458.54 242.228 461.02 246.614 461.546L335.245 472.179L331.171 515.83C330.968 518.006 331.145 520.206 331.692 522.305C332.239 524.403 333.145 526.359 334.359 528.061C335.572 529.763 337.07 531.177 338.765 532.222C340.461 533.268 342.321 533.924 344.241 534.155L344.241 534.155C348.117 534.62 351.998 533.32 355.029 530.541C358.06 527.762 359.993 523.732 360.404 519.337L364.478 475.686L385.154 478.166C386.793 478.363 388.449 478.191 390.03 477.662C391.61 477.133 393.083 476.256 394.364 475.081C395.645 473.906 396.71 472.457 397.497 470.816C398.284 469.175 398.778 467.374 398.952 465.517V465.517C399.125 463.659 398.974 461.781 398.507 459.989C398.04 458.198 397.267 456.528 396.231 455.075C395.195 453.623 393.917 452.416 392.469 451.523C391.022 450.631 389.433 450.07 387.795 449.874V449.874Z" stroke="#3F3D56" stroke-miterlimit="10"/>
<path d="M775.661 496.404L754.985 493.923L761.427 424.891C761.769 421.225 760.813 417.554 758.768 414.687C756.723 411.82 753.758 409.992 750.524 409.604L745.679 409.023C744.077 408.831 742.458 408.998 740.914 409.515C739.37 410.032 737.931 410.89 736.678 412.037C735.426 413.185 734.386 414.602 733.617 416.205C732.847 417.809 732.364 419.569 732.195 421.385L725.752 490.416L667.43 483.42C666.23 483.276 665.084 482.783 664.101 481.988C663.119 481.194 662.335 480.125 661.824 478.886C661.314 477.646 661.094 476.278 661.187 474.915C661.281 473.551 661.683 472.238 662.356 471.102L736.445 346.05C737.369 344.491 738.004 342.736 738.313 340.891C738.622 339.046 738.598 337.149 738.242 335.314C737.887 333.48 737.207 331.746 736.244 330.218C735.281 328.69 734.055 327.399 732.64 326.422L729.178 324.034C726.49 322.18 723.276 321.568 720.201 322.326C717.126 323.083 714.426 325.151 712.659 328.103L622.473 478.743C620.937 481.308 619.983 484.263 619.695 487.346C619.231 492.318 620.528 497.295 623.301 501.183C626.074 505.07 630.095 507.55 634.48 508.076L723.111 518.709L719.038 562.36C718.627 566.755 719.774 571.155 722.225 574.591C724.676 578.028 728.231 580.22 732.107 580.685V580.685C735.984 581.15 739.864 579.85 742.895 577.071C745.927 574.292 747.86 570.262 748.27 565.867L752.344 522.216L773.021 524.696C774.659 524.893 776.316 524.721 777.896 524.192C779.476 523.663 780.949 522.786 782.23 521.611C783.511 520.437 784.576 518.987 785.363 517.346C786.15 515.705 786.645 513.904 786.818 512.047V512.047C787.168 508.295 786.19 504.539 784.097 501.605C782.005 498.672 778.97 496.801 775.661 496.404V496.404Z" stroke="#3F3D56" stroke-miterlimit="10"/>
<path d="M525.693 289.448C475.684 283.449 436.383 315.517 428.461 400.395C419.483 496.589 453.013 526.36 503.022 532.359C553.031 538.358 593.679 515.034 602.431 421.265C611.786 321.029 575.702 295.447 525.693 289.448ZM506.331 500.468C471.694 496.313 455.748 471.103 461.966 404.477C467.453 345.689 489.183 316.947 523.82 321.102C558.458 325.258 575.394 347.881 568.914 417.307C562.853 482.254 540.969 504.624 506.331 500.468V500.468Z" stroke="#3F3D56" stroke-miterlimit="10"/>
</svg>
