<svg width="1033" height="833" viewBox="0 0 1033 833" fill="none" xmlns="http://www.w3.org/2000/svg">
<path opacity="0.1" d="M530.99 832.64C788.62 832.64 997.47 646.247 997.47 416.32C997.47 186.393 788.62 0 530.99 0C273.36 0 64.51 186.393 64.51 416.32C64.51 646.247 273.36 832.64 530.99 832.64Z" fill="#F50062"/>
<path opacity="0.1" d="M172 655.94C266.993 655.94 344 644.004 344 629.28C344 614.556 266.993 602.62 172 602.62C77.007 602.62 0 614.556 0 629.28C0 644.004 77.007 655.94 172 655.94Z" fill="#F50062"/>
<path opacity="0.1" d="M254.67 782.95C291.618 782.95 321.57 776.763 321.57 769.13C321.57 761.497 291.618 755.31 254.67 755.31C217.722 755.31 187.77 761.497 187.77 769.13C187.77 776.763 217.722 782.95 254.67 782.95Z" fill="#F50062"/>
<path opacity="0.1" d="M711.8 729.78C748.748 729.78 778.7 723.593 778.7 715.96C778.7 708.328 748.748 702.14 711.8 702.14C674.852 702.14 644.9 708.328 644.9 715.96C644.9 723.593 674.852 729.78 711.8 729.78Z" fill="#F50062"/>
<path opacity="0.1" d="M484.79 718.18C544.873 718.18 593.58 709.929 593.58 699.75C593.58 689.571 544.873 681.32 484.79 681.32C424.707 681.32 376 689.571 376 699.75C376 709.929 424.707 718.18 484.79 718.18Z" fill="#F50062"/>
<path opacity="0.1" d="M805.34 644.06C930.659 644.06 1032.25 628.148 1032.25 608.52C1032.25 588.892 930.659 572.98 805.34 572.98C680.021 572.98 578.43 588.892 578.43 608.52C578.43 628.148 680.021 644.06 805.34 644.06Z" fill="#F50062"/>
<path d="M197.01 625.19H262.12C264.798 625.191 267.449 624.647 269.91 623.591C272.372 622.535 274.593 620.99 276.438 619.049C278.284 617.108 279.715 614.812 280.645 612.301C281.576 609.789 281.986 607.115 281.85 604.44C280.41 576.52 276.76 526.74 268.08 495.14C263.39 478.09 257.94 469.14 252.94 464.73C250.595 462.467 247.568 461.043 244.33 460.68C241.874 460.468 239.415 461.065 237.33 462.38C225.24 473.97 211.12 534.96 211.12 534.96L197.01 625.19Z" fill="#A8A8A8"/>
<path d="M405.73 699.37H568.87C570.447 699.362 571.995 698.945 573.363 698.161C574.732 697.378 575.874 696.253 576.679 694.897C577.485 693.542 577.925 692 577.959 690.424C577.992 688.847 577.617 687.289 576.87 685.9L495.34 534.42C494.559 532.968 493.399 531.754 491.983 530.909C490.567 530.063 488.949 529.616 487.3 529.616C485.651 529.616 484.033 530.063 482.617 530.909C481.202 531.754 480.041 532.968 479.26 534.42L397.69 685.9C396.941 687.292 396.566 688.854 396.602 690.434C396.637 692.014 397.081 693.558 397.891 694.915C398.701 696.272 399.849 697.395 401.223 698.176C402.597 698.957 404.15 699.368 405.73 699.37ZM497.68 671.69H476.92V650.94H497.68V671.69ZM497.68 637.1H476.92V595.59H497.68V637.1Z" fill="#464353"/>
<path opacity="0.1" d="M405.73 699.37H568.87C570.447 699.362 571.995 698.945 573.363 698.161C574.732 697.378 575.874 696.253 576.679 694.897C577.485 693.542 577.925 692 577.959 690.424C577.992 688.847 577.617 687.289 576.87 685.9L495.34 534.42C494.559 532.968 493.399 531.754 491.983 530.909C490.567 530.063 488.949 529.616 487.3 529.616C485.651 529.616 484.033 530.063 482.617 530.909C481.202 531.754 480.041 532.968 479.26 534.42L397.69 685.9C396.941 687.292 396.566 688.854 396.602 690.434C396.637 692.014 397.081 693.558 397.891 694.915C398.701 696.272 399.849 697.395 401.223 698.176C402.597 698.957 404.15 699.368 405.73 699.37ZM497.68 671.69H476.92V650.94H497.68V671.69ZM497.68 637.1H476.92V595.59H497.68V637.1Z" fill="black"/>
<path d="M405.73 704.37H568.87C570.447 704.362 571.995 703.945 573.363 703.161C574.732 702.378 575.874 701.253 576.679 699.897C577.485 698.542 577.925 697 577.959 695.424C577.992 693.847 577.617 692.289 576.87 690.9L495.34 539.42C494.559 537.968 493.399 536.754 491.983 535.909C490.567 535.063 488.949 534.616 487.3 534.616C485.651 534.616 484.033 535.063 482.617 535.909C481.202 536.754 480.041 537.968 479.26 539.42L397.69 690.9C396.941 692.292 396.566 693.854 396.602 695.434C396.637 697.014 397.081 698.558 397.891 699.915C398.701 701.272 399.849 702.395 401.223 703.176C402.597 703.957 404.15 704.368 405.73 704.37ZM497.68 676.69H476.92V655.94H497.68V676.69ZM497.68 642.1H476.92V600.59H497.68V642.1Z" fill="#464353"/>
<path d="M695.32 511.08C695.32 511.08 672.12 541.61 652.87 541.86C633.62 542.11 622.32 554.72 631.46 562.6C640.6 570.48 740.2 558.1 740.2 558.1C740.2 558.1 741.14 520.58 732.51 515.1C723.88 509.62 695.32 511.08 695.32 511.08Z" fill="#444176"/>
<path d="M944.77 547.73C944.77 547.73 948.32 571.91 937.35 588.4C926.38 604.89 957.17 611.25 957.17 611.25C957.17 611.25 979.54 617.48 981.17 595.38C982.8 573.28 982.27 556.38 980.17 554.58C978.07 552.78 976.32 540.35 976.32 540.35L944.77 547.73Z" fill="#444176"/>
<path d="M593.57 593.4C593.57 593.4 592.76 515.19 670.15 483.4L688.12 449.21L696.74 428.21C699.861 420.604 704.772 413.864 711.055 408.561C717.338 403.258 724.808 399.549 732.83 397.75L746.77 394.62L751.08 376.46C753.376 366.753 758.464 357.931 765.717 351.082C772.969 344.233 782.067 339.658 791.89 337.92C800.367 336.346 808.968 335.543 817.59 335.52C821.405 335.577 825.14 336.621 828.432 338.548C831.724 340.476 834.462 343.222 836.38 346.52C836.38 346.52 909.7 345.71 912.95 385.63C912.95 385.63 920.29 422.28 930.88 428.8C930.88 428.8 948.8 424.73 966.72 450.8L986.27 517.6C986.27 517.6 1037.59 565.66 1022.11 609.6C1022.11 609.6 1000.93 639.74 893.4 619.37C893.4 619.37 778.54 654.37 717.4 606.37C717.39 606.43 615.57 625.98 593.57 593.4Z" fill="#A8A8A8"/>
<path opacity="0.1" d="M644.89 581.18C644.89 581.18 661.19 558.37 660.37 542.07C659.55 525.77 664.21 486.07 664.21 486.07" stroke="black" stroke-miterlimit="10"/>
<path opacity="0.1" d="M704.36 520.08C704.36 520.08 720.65 489.94 719.02 473.65C719.02 473.65 736.13 442.65 749.16 445.13" stroke="black" stroke-miterlimit="10"/>
<path opacity="0.1" d="M793.97 434.54C793.97 434.54 838.77 418.25 841.22 405.22" stroke="black" stroke-miterlimit="10"/>
<path opacity="0.1" d="M810.26 472.02C810.26 472.02 857.51 450.84 857.51 445.13H881.12C881.12 445.13 915.34 489.94 911.27 509.49" stroke="black" stroke-miterlimit="10"/>
<path opacity="0.1" d="M865.66 504.6C865.66 504.6 820.04 501.34 803.74 514.38C787.44 527.42 758.12 533.93 758.12 533.93C758.12 533.93 741.01 570.59 734.49 577.1C727.97 583.61 717.38 606.43 717.38 606.43" stroke="black" stroke-miterlimit="10"/>
<path opacity="0.1" d="M865.66 547.78C865.66 547.78 870.54 564.88 877.06 574.66C883.58 584.44 893.35 619.46 893.35 619.46" stroke="black" stroke-miterlimit="10"/>
<path opacity="0.1" d="M942.23 597.47C942.23 597.47 952.57 626.24 961.66 626.52" stroke="black" stroke-miterlimit="10"/>
<path opacity="0.1" d="M874.5 473.98C874.5 473.98 901.36 481.24 912.59 498.83C923.82 516.42 958.12 532.37 958.12 532.37" stroke="black" stroke-miterlimit="10"/>
<path opacity="0.1" d="M886.02 387.32C886.02 387.32 886.02 424.79 896.61 424.79C907.2 424.79 930.83 428.86 930.83 428.86" stroke="black" stroke-miterlimit="10"/>
<path opacity="0.1" d="M834.12 342.82C834.12 342.82 831.41 407.55 817.56 424.31" stroke="black" stroke-miterlimit="10"/>
<g opacity="0.05">
<path opacity="0.05" d="M984.59 516.82L965.04 450.02C947.12 423.95 929.2 428.02 929.2 428.02C918.61 421.5 911.28 384.84 911.28 384.84C908.02 344.92 834.7 345.74 834.7 345.74C832.779 342.436 830.035 339.686 826.735 337.758C823.435 335.83 819.691 334.791 815.87 334.74C812.41 334.74 808.87 334.85 805.33 335.14C807.33 335.34 809.247 335.623 811.08 335.99L816.78 345.77C816.78 345.77 890.09 344.95 893.35 384.87C893.35 384.87 900.69 421.53 911.28 428.05C911.28 428.05 929.2 423.97 947.12 450.05L966.67 516.85C966.67 516.85 1017.99 564.91 1002.51 608.85C1002.51 608.85 992.06 623.72 948.59 625.52C1007.2 627.67 1020.43 608.85 1020.43 608.85C1035.91 564.88 984.59 516.82 984.59 516.82Z" fill="black"/>
<path opacity="0.05" d="M697.84 605.61C680.595 608.713 663.157 610.621 645.65 611.32C666.06 612.1 687.29 609.89 700.97 608.01C699.91 607.2 698.87 606.42 697.84 605.61Z" fill="black"/>
<path opacity="0.05" d="M873.8 618.65C848.721 625.684 822.906 629.765 796.88 630.81C834.43 632.17 870 624.34 884.66 620.58C881.12 619.99 877.53 619.32 873.8 618.65Z" fill="black"/>
</g>
<path d="M222.85 745.71C222.85 745.71 245.26 745.02 252.01 740.21C258.76 735.4 286.47 729.66 288.15 737.37C289.83 745.08 321.82 775.72 296.52 775.93C271.22 776.14 237.75 771.99 231.01 767.88C224.27 763.77 222.85 745.71 222.85 745.71Z" fill="#A8A8A8"/>
<path opacity="0.2" d="M296.98 773.24C271.68 773.45 238.2 769.3 231.46 765.24C226.33 762.11 224.28 750.89 223.6 745.72H222.85C222.85 745.72 224.27 763.79 231.01 767.89C237.75 771.99 271.23 776.14 296.52 775.94C303.83 775.88 306.35 773.28 306.21 769.43C305.2 771.75 302.41 773.2 296.98 773.24Z" fill="black"/>
<path d="M769.19 689.51C769.19 689.51 742.8 684.23 735.77 677.19C728.74 670.15 697.07 657.85 693.55 666.64C690.03 675.43 646.06 705.34 675.96 710.64C705.86 715.94 746.32 717.64 755.12 714.16C763.92 710.68 769.19 689.51 769.19 689.51Z" fill="#A8A8A8"/>
<path opacity="0.2" d="M675.96 707.32C705.87 712.59 746.32 714.32 755.12 710.83C761.81 708.15 766.47 695.28 768.31 689.29L769.19 689.48C769.19 689.48 763.91 710.58 755.12 714.1C746.33 717.62 705.87 715.86 675.96 710.58C667.33 709.06 664.86 705.48 665.79 700.96C666.53 703.94 669.54 706.21 675.96 707.32Z" fill="black"/>
<path opacity="0.1" d="M516.5 114.85H510.22C511.387 114.85 512.506 114.386 513.331 113.561C514.156 112.736 514.62 111.617 514.62 110.45C514.62 109.283 514.156 108.164 513.331 107.339C512.506 106.514 511.387 106.05 510.22 106.05H459.34C458.173 106.05 457.054 106.514 456.229 107.339C455.403 108.164 454.94 109.283 454.94 110.45C454.94 111.617 455.403 112.736 456.229 113.561C457.054 114.386 458.173 114.85 459.34 114.85H465.62C464.491 114.904 463.425 115.391 462.645 116.209C461.865 117.027 461.43 118.114 461.43 119.245C461.43 120.376 461.865 121.463 462.645 122.281C463.425 123.1 464.491 123.586 465.62 123.64H456.83C455.663 123.64 454.544 124.104 453.719 124.929C452.894 125.754 452.43 126.873 452.43 128.04C452.43 129.207 452.894 130.326 453.719 131.151C454.544 131.976 455.663 132.44 456.83 132.44H507.71C508.877 132.44 509.996 131.976 510.821 131.151C511.646 130.326 512.11 129.207 512.11 128.04C512.11 126.873 511.646 125.754 510.821 124.929C509.996 124.104 508.877 123.64 507.71 123.64H516.5C517.095 123.668 517.689 123.576 518.247 123.368C518.805 123.16 519.315 122.841 519.746 122.43C520.177 122.019 520.52 121.525 520.754 120.977C520.989 120.43 521.11 119.841 521.11 119.245C521.11 118.65 520.989 118.06 520.754 117.513C520.52 116.966 520.177 116.471 519.746 116.061C519.315 115.65 518.805 115.33 518.247 115.122C517.689 114.914 517.095 114.822 516.5 114.85Z" fill="#F50062"/>
<path opacity="0.1" d="M714.12 269.66H707.84C708.969 269.606 710.035 269.12 710.815 268.301C711.595 267.483 712.03 266.396 712.03 265.265C712.03 264.134 711.595 263.047 710.815 262.229C710.035 261.41 708.969 260.924 707.84 260.87H656.91C656.315 260.842 655.721 260.934 655.163 261.142C654.605 261.35 654.095 261.67 653.664 262.08C653.233 262.491 652.89 262.985 652.656 263.533C652.421 264.08 652.3 264.67 652.3 265.265C652.3 265.86 652.421 266.45 652.656 266.997C652.89 267.545 653.233 268.039 653.664 268.45C654.095 268.86 654.605 269.18 655.163 269.388C655.721 269.596 656.315 269.688 656.91 269.66H663.19C662.061 269.714 660.995 270.2 660.215 271.019C659.435 271.837 659 272.924 659 274.055C659 275.186 659.435 276.273 660.215 277.091C660.995 277.91 662.061 278.396 663.19 278.45H654.4C653.233 278.45 652.114 278.914 651.289 279.739C650.464 280.564 650 281.683 650 282.85C650 284.017 650.464 285.136 651.289 285.961C652.114 286.786 653.233 287.25 654.4 287.25H705.27C706.437 287.25 707.556 286.786 708.381 285.961C709.206 285.136 709.67 284.017 709.67 282.85C709.67 281.683 709.206 280.564 708.381 279.739C707.556 278.914 706.437 278.45 705.27 278.45H714.12C714.715 278.478 715.309 278.386 715.867 278.178C716.425 277.97 716.935 277.65 717.366 277.24C717.797 276.829 718.14 276.335 718.374 275.787C718.609 275.24 718.73 274.65 718.73 274.055C718.73 273.46 718.609 272.87 718.374 272.323C718.14 271.775 717.797 271.281 717.366 270.87C716.935 270.46 716.425 270.14 715.867 269.932C715.309 269.724 714.715 269.632 714.12 269.66Z" fill="#F50062"/>
<path opacity="0.1" d="M421.29 241.02H415.01C415.605 241.048 416.199 240.956 416.757 240.748C417.315 240.54 417.825 240.221 418.256 239.81C418.687 239.399 419.03 238.905 419.264 238.357C419.499 237.81 419.62 237.221 419.62 236.625C419.62 236.03 419.499 235.44 419.264 234.893C419.03 234.346 418.687 233.851 418.256 233.441C417.825 233.03 417.315 232.711 416.757 232.502C416.199 232.294 415.605 232.202 415.01 232.23H364.12C363.525 232.202 362.931 232.294 362.373 232.502C361.815 232.711 361.305 233.03 360.874 233.441C360.443 233.851 360.1 234.346 359.866 234.893C359.631 235.44 359.51 236.03 359.51 236.625C359.51 237.221 359.631 237.81 359.866 238.357C360.1 238.905 360.443 239.399 360.874 239.81C361.305 240.221 361.815 240.54 362.373 240.748C362.931 240.956 363.525 241.048 364.12 241.02H370.4C369.805 240.992 369.211 241.084 368.653 241.292C368.095 241.5 367.585 241.82 367.154 242.231C366.723 242.641 366.38 243.136 366.146 243.683C365.911 244.23 365.79 244.82 365.79 245.415C365.79 246.011 365.911 246.6 366.146 247.147C366.38 247.695 366.723 248.189 367.154 248.6C367.585 249.011 368.095 249.33 368.653 249.538C369.211 249.746 369.805 249.838 370.4 249.81H361.6C360.433 249.81 359.314 250.274 358.489 251.099C357.664 251.924 357.2 253.043 357.2 254.21C357.2 255.377 357.664 256.496 358.489 257.321C359.314 258.147 360.433 258.61 361.6 258.61H412.48C413.647 258.61 414.766 258.147 415.591 257.321C416.416 256.496 416.88 255.377 416.88 254.21C416.88 253.043 416.416 251.924 415.591 251.099C414.766 250.274 413.647 249.81 412.48 249.81H421.27C421.865 249.838 422.459 249.746 423.017 249.538C423.575 249.33 424.085 249.011 424.516 248.6C424.947 248.189 425.29 247.695 425.524 247.147C425.759 246.6 425.88 246.011 425.88 245.415C425.88 244.82 425.759 244.23 425.524 243.683C425.29 243.136 424.947 242.641 424.516 242.231C424.085 241.82 423.575 241.5 423.017 241.292C422.459 241.084 421.865 240.992 421.27 241.02H421.29Z" fill="#F50062"/>
</svg>
