<svg width="3671" height="1657" viewBox="0 0 3671 1657" fill="none" xmlns="http://www.w3.org/2000/svg">
<path opacity="0.1" d="M3599.95 447.69C3563.63 397.968 3514.54 351.842 3454.4 310.935L1434.67 299.197L3097.57 161.5C2990.14 136.285 2875.78 122.912 2760.16 122.046C2601.08 47.0796 2405.21 4.3911 2201.68 0.331189C1998.15 -3.72873 1797.83 31.0569 1630.53 99.5134C1496.8 58.9704 1348.56 37.8981 1198.19 38.0596C749.425 38.0596 375.498 221.315 291.624 464.303L3599.95 447.69Z" fill="#C51B8A"/>
<path opacity="0.1" d="M3670.97 651.492C3671.07 585.592 3649.71 520.293 3608.04 459.142L107.614 675.767C71.6446 714.258 44.1258 755.29 25.7194 797.875L1109.77 893.129L0.911377 962.592C34.2667 1237.68 434.252 1454.9 922.872 1454.9C1168.83 1454.9 1392.35 1399.86 1557.94 1310.09C1724.06 1401.56 1949.73 1457.81 2198.33 1457.81C2567.22 1457.81 2885.59 1333.98 3033.84 1154.94C3331.3 1099.29 3562.35 959.54 3641.43 784.704L2270.6 659.359H3670.83C3670.9 656.736 3670.97 654.114 3670.97 651.492Z" fill="#C51B8A"/>
<path d="M1560.29 1131.55C1561.69 1132.31 1562.91 1132.77 1563.02 1132.55C1563.13 1132.33 1562.07 1131.55 1560.68 1130.82C1559.29 1130.09 1559.83 1130.61 1559.68 1130.82C1559.53 1131.03 1558.9 1130.79 1560.29 1131.55Z" fill="#FFD037"/>
<path d="M1285.46 1160.54C1287.78 1161.59 1289.8 1162.23 1289.99 1161.92C1290.17 1161.62 1288.41 1160.54 1286.11 1159.52C1283.81 1158.51 1284.7 1159.23 1284.45 1159.52C1284.2 1159.81 1283.16 1159.48 1285.46 1160.54Z" fill="#FFD037"/>
<path opacity="0.1" d="M2128.67 1657C2760.8 1657 3273.24 1643.3 3273.24 1626.4C3273.24 1609.49 2760.8 1595.79 2128.67 1595.79C1496.54 1595.79 984.093 1609.49 984.093 1626.4C984.093 1643.3 1496.54 1657 2128.67 1657Z" fill="#C51B8A"/>
</svg>
