<svg width="229" height="91" viewBox="0 0 229 91" fill="none" xmlns="http://www.w3.org/2000/svg">
<path d="M14.1681 88.08L14.0481 83.4C13.9681 82.04 13.9281 80.52 13.9281 78.84L14.0481 74.76C13.8081 73.88 13.2081 65.12 12.2481 48.48C11.2881 31.84 10.7281 21.16 10.5681 16.44C5.92813 16.28 2.96813 15.8 1.68813 15C0.808128 14.36 0.368128 13.64 0.368128 12.84C0.368128 12.2 0.768128 11.64 1.56813 11.16C2.44813 10.6 3.32813 10.32 4.20813 10.32C6.44813 10.32 9.16813 10.48 12.3681 10.8C15.4081 11.2 18.1281 11.4 20.5281 11.4H21.4881H22.4481C24.9281 11.4 26.1681 12.36 26.1681 14.28C26.1681 15.24 25.7681 16.04 24.9681 16.68C24.1681 17.24 23.2481 17.52 22.2081 17.52C21.4881 17.52 20.4481 17.4 19.0881 17.16L16.6881 16.68L16.5681 17.28L16.4481 17.88C16.4481 25 17.1281 36.36 18.4881 51.96C19.7681 66.6 20.4081 77.96 20.4081 86.04C20.4081 87 19.9681 87.84 19.0881 88.56C18.2881 89.28 17.3681 89.64 16.3281 89.64L14.1681 88.08Z" fill="#F50062"/>
<path d="M88.5513 7.44C88.5513 7.04 88.6713 6.72 88.9113 6.48C89.2313 6.15999 89.5913 5.99999 89.9913 5.99999H104.031C104.431 5.99999 104.751 6.15999 104.991 6.48C105.311 6.72 105.471 7.04 105.471 7.44V88.56C105.471 88.96 105.311 89.32 104.991 89.64C104.751 89.88 104.431 90 104.031 90H89.9913C89.5913 90 89.2313 89.88 88.9113 89.64C88.6713 89.32 88.5513 88.96 88.5513 88.56V84.6C88.5513 84.36 88.4713 84.24 88.3113 84.24C88.1513 84.16 87.9913 84.2 87.8313 84.36C84.4713 88.76 79.8713 90.96 74.0312 90.96C68.4313 90.96 63.5913 89.4 59.5113 86.28C55.5113 83.16 52.6313 78.88 50.8713 73.44C49.5113 69.28 48.8313 64.44 48.8313 58.92C48.8313 53.24 49.5513 48.28 50.9913 44.04C52.8313 38.92 55.7113 34.88 59.6313 31.92C63.6313 28.88 68.5513 27.36 74.3913 27.36C80.1513 27.36 84.6313 29.36 87.8313 33.36C87.9913 33.6 88.1513 33.68 88.3113 33.6C88.4713 33.52 88.5513 33.36 88.5513 33.12V7.44ZM86.0313 71.28C87.6313 68.32 88.4313 64.28 88.4313 59.16C88.4313 53.8 87.5513 49.6 85.7913 46.56C83.9513 43.44 81.2713 41.88 77.7513 41.88C73.9913 41.88 71.1513 43.44 69.2313 46.56C67.2313 49.68 66.2313 53.92 66.2313 59.28C66.2313 64.08 67.0713 68.08 68.7513 71.28C70.7513 74.72 73.7113 76.44 77.6313 76.44C81.2313 76.44 84.0313 74.72 86.0313 71.28Z" fill="black"/>
<path fill-rule="evenodd" clip-rule="evenodd" d="M214.755 6.59575H219.141C224.577 6.59575 229 10.1042 229 14.4164C229 18.6755 224.687 22.1505 219.343 22.2367C214.812 34.3303 203.476 44.1321 188.639 48.7608C186.634 54.8163 183.352 60.5104 178.877 65.6974L176.444 80.2053H179.638C184.271 80.2053 188.041 83.1959 188.041 86.8714C188.041 88.5966 186.271 90 184.097 90H169.335C166.534 90 164.256 88.1925 164.256 85.9706L164.255 85.2384C163.586 85.6265 162.783 85.8391 161.938 85.8391H161.937C160.883 85.8391 159.893 85.5131 159.148 84.9217L148.71 76.6416C146.73 75.0707 146.73 72.5147 148.71 70.9437L164.222 58.6377L164.216 54.2497C157.292 57.4398 149.448 59.1175 141.382 59.1175C138.03 59.1175 134.699 58.8189 131.449 58.2428C129.96 60.6465 128.244 62.9737 126.325 65.1812L128.856 80.2053H132.792C137.426 80.2053 141.195 83.1959 141.195 86.8714C141.195 88.5966 139.425 90 137.251 90H122.489C122.184 90 121.883 89.9768 121.586 89.9347C121.327 89.9772 121.059 90 120.784 90H106.022C103.221 90 100.943 88.1925 100.943 85.9706V83.0814L98.0166 64.899C97.9972 64.7783 97.994 64.6565 98.0076 64.5351L100.389 43.0122V36.4274C98.4227 38.0978 97.2867 40.3148 97.2867 42.6967V52.9784C97.2867 53.9174 96.327 54.6787 95.1433 54.6787C93.9594 54.6787 93 53.9174 93 52.9784V42.6967C93 38.1268 96.0462 33.998 101.006 31.7553C101.272 30.9276 101.648 30.1121 102.185 29.4332C102.797 28.3619 104.208 26.4414 105.608 24.5579L105.614 24.5501C105.966 24.077 106.269 23.6693 106.384 23.5039L118.443 6.15113C122.162 0.799051 126.78 0.000211408 129.201 0.000211408C131.623 0.000211408 136.24 0.799472 139.96 6.15113L145.032 13.4496L150.105 6.15092C153.824 0.79884 158.441 0 160.863 0C163.284 0 167.902 0.799051 171.62 6.15092L183.68 23.5037L183.705 23.5385C186.647 21.9444 188.464 19.2828 188.464 16.3881V12.0049C188.464 10.3775 188.911 8.83233 189.705 7.43757L188.588 6.46236C187.792 5.7672 187.857 4.69189 188.733 4.06036C189.609 3.42905 190.965 3.48025 191.761 4.17521L192.138 4.50477C194.705 2.2762 198.397 0.875542 202.493 0.875542C207.628 0.875542 212.297 3.08705 214.755 6.59575ZM121.966 64.9751C121.894 64.5495 122.028 64.1179 122.341 63.7675C124.166 61.7218 125.804 59.5613 127.232 57.3268C125.06 56.764 122.94 56.0732 120.895 55.2552C119.322 57.5447 117.557 59.7516 115.748 61.8794V64.4679L121.285 81.4953C123.284 82.6591 124.612 84.5061 124.719 86.5992H136.894C136.719 84.9254 134.946 83.6057 132.792 83.6057H126.98C125.906 83.6057 124.997 82.975 124.855 82.1305L121.966 64.9751ZM116.39 80.2063C116.407 80.2068 116.423 80.2072 116.44 80.2074L112.744 68.8427L112.668 80.2051H116.326C116.347 80.2051 116.369 80.2057 116.39 80.2063ZM151.741 74.2367L161.928 82.3174C162.558 81.7284 162.9 80.9894 162.899 80.2083C162.899 79.3361 162.472 78.5162 161.694 77.8998L157.705 74.7356C157.268 74.389 157.041 73.9101 157.082 73.421C157.123 72.9321 157.428 72.4807 157.918 72.183L164.233 68.3496L164.227 63.4417L151.741 73.3476C151.432 73.5929 151.432 73.9916 151.741 74.2367ZM164.239 72.6289L162.468 73.7042L164.242 75.1118L164.239 72.6289ZM217.717 18.8373H219.141C222.213 18.8373 224.713 16.854 224.713 14.4164C224.713 11.9792 222.213 9.99635 219.141 9.99635H213.422C212.565 9.99635 211.79 9.59092 211.452 8.96572C209.913 6.11699 206.397 4.27614 202.493 4.27614C197.12 4.27614 192.75 7.74333 192.75 12.0047V16.3875C192.75 21.1906 189.16 25.5327 183.604 27.449C183.075 27.6315 182.477 27.6368 181.943 27.465C181.409 27.2931 180.985 26.9578 180.766 26.5349C180.523 26.0646 180.24 25.597 179.926 25.1456L167.866 7.79222C165.926 5.00102 163.373 3.40018 160.862 3.40018C158.35 3.40018 155.797 5.00102 153.858 7.79222L146.909 17.7919C146.532 18.3343 145.812 18.6713 145.032 18.6713C144.251 18.6713 143.532 18.3345 143.155 17.7919L136.206 7.79243C134.266 5.00123 131.713 3.40039 129.201 3.40039C126.69 3.40039 124.137 5.00123 122.197 7.79243L110.138 25.1452C110.002 25.3405 109.74 25.6933 109.38 26.1785L109.301 26.2844C108.339 27.579 106.548 29.9886 106.045 30.9156C105.993 31.0121 105.93 31.1044 105.856 31.1916C104.891 32.331 104.644 35.0364 104.675 36.1684C104.676 36.1806 104.676 36.1931 104.676 36.2055V43.0861C104.676 43.1359 104.673 43.1854 104.668 43.2349L102.298 64.6495L105.212 82.7578C105.224 82.8292 105.23 82.9013 105.23 82.9731V85.9704C105.23 86.317 105.585 86.599 106.022 86.599H120.428C120.253 84.9252 118.48 83.6055 116.326 83.6055H110.514C109.943 83.6055 109.396 83.4249 108.994 83.1042C108.592 82.7835 108.367 82.3485 108.37 81.8961L108.485 64.7408C108.488 64.3918 108.625 64.0519 108.88 63.7673C112.118 60.1389 115.497 56.2551 118.09 52.181C118.354 51.7657 118.821 51.4547 119.383 51.32C119.944 51.1856 120.551 51.2391 121.061 51.4688C127.235 54.2478 134.262 55.7167 141.383 55.7167C149.438 55.7167 157.247 53.8704 163.966 50.3771C164.315 50.1956 164.723 50.0989 165.141 50.0989H166.357C167.54 50.0989 168.499 50.8594 168.5 51.7977L168.543 85.9689C168.543 86.3175 168.898 86.5994 169.335 86.5994H183.74C183.565 84.9257 181.792 83.6059 179.638 83.6059H173.997C173.379 83.6059 172.792 83.3943 172.385 83.0258C171.978 82.6572 171.791 82.1673 171.873 81.6814L174.747 64.5326C174.834 64.0161 175.207 63.5789 175.731 63.3174C179.925 58.3435 182.96 52.8836 184.755 47.0805C184.924 46.5318 185.427 46.0853 186.096 45.8902C200.661 41.6364 211.708 31.9974 215.644 20.1059C215.891 19.3582 216.743 18.8373 217.717 18.8373ZM203.603 8.29583C203.603 9.02121 202.862 9.60924 201.948 9.60924C201.033 9.60924 200.292 9.02121 200.292 8.29583C200.292 7.57044 201.033 6.98241 201.948 6.98241C202.862 6.98241 203.603 7.57044 203.603 8.29583Z" fill="black"/>
</svg>

