<svg width="159" height="116" viewBox="0 0 159 116" fill="none" xmlns="http://www.w3.org/2000/svg">
<rect width="158" height="114" fill="#C51B8A"/>
<path d="M44.62 111.44L44.46 105.2C44.3533 103.387 44.3 101.36 44.3 99.12L44.46 93.68C44.14 92.5067 43.34 80.8267 42.06 58.64C40.78 36.4533 40.0333 22.2133 39.82 15.92C33.6333 15.7067 29.6867 15.0667 27.98 14C26.8067 13.1467 26.22 12.1867 26.22 11.12C26.22 10.2667 26.7533 9.52 27.82 8.88C28.9933 8.13333 30.1667 7.75999 31.34 7.75999C34.3267 7.75999 37.9533 7.97333 42.22 8.4C46.2733 8.93333 49.9 9.2 53.1 9.2H54.38H55.66C58.9667 9.2 60.62 10.48 60.62 13.04C60.62 14.32 60.0867 15.3867 59.02 16.24C57.9533 16.9867 56.7267 17.36 55.34 17.36C54.38 17.36 52.9933 17.2 51.18 16.88L47.98 16.24L47.82 17.04L47.66 17.84C47.66 27.3333 48.5667 42.48 50.38 63.28C52.0867 82.8 52.94 97.9467 52.94 108.72C52.94 110 52.3533 111.12 51.18 112.08C50.1133 113.04 48.8867 113.52 47.5 113.52L44.62 111.44ZM137.861 14.928C137.861 14.448 138.005 14.064 138.293 13.776C138.677 13.392 139.109 13.2 139.589 13.2H156.437C156.917 13.2 157.301 13.392 157.589 13.776C157.973 14.064 158.165 14.448 158.165 14.928V112.272C158.165 112.752 157.973 113.184 157.589 113.568C157.301 113.856 156.917 114 156.437 114H139.589C139.109 114 138.677 113.856 138.293 113.568C138.005 113.184 137.861 112.752 137.861 112.272V107.52C137.861 107.232 137.765 107.088 137.573 107.088C137.381 106.992 137.189 107.04 136.997 107.232C132.965 112.512 127.445 115.152 120.437 115.152C113.717 115.152 107.909 113.28 103.013 109.536C98.2135 105.792 94.7575 100.656 92.6455 94.128C91.0135 89.136 90.1975 83.328 90.1975 76.704C90.1975 69.888 91.0615 63.936 92.7895 58.848C94.9975 52.704 98.4535 47.856 103.157 44.304C107.957 40.656 113.861 38.832 120.869 38.832C127.781 38.832 133.157 41.232 136.997 46.032C137.189 46.32 137.381 46.416 137.573 46.32C137.765 46.224 137.861 46.032 137.861 45.744V14.928ZM134.837 91.536C136.757 87.984 137.717 83.136 137.717 76.992C137.717 70.56 136.661 65.52 134.549 61.872C132.341 58.128 129.125 56.256 124.901 56.256C120.389 56.256 116.981 58.128 114.677 61.872C112.277 65.616 111.077 70.704 111.077 77.136C111.077 82.896 112.085 87.696 114.101 91.536C116.501 95.664 120.053 97.728 124.757 97.728C129.077 97.728 132.437 95.664 134.837 91.536Z" fill="white"/>
</svg>
