<svg width="250" height="390" viewBox="0 0 250 390" fill="none" xmlns="http://www.w3.org/2000/svg">
<path d="M122.494 389.975C133.654 389.975 142.702 380.927 142.702 369.767C142.702 358.606 133.654 349.559 122.494 349.559C111.333 349.559 102.286 358.606 102.286 369.767C102.286 380.927 111.333 389.975 122.494 389.975Z" fill="#F50062"/>
<path d="M124.916 249.722C193.761 249.722 249.571 193.912 249.571 125.067C249.571 56.2215 193.761 0.411377 124.916 0.411377C56.0707 0.411377 0.26062 56.2215 0.26062 125.067C0.26062 193.912 56.0707 249.722 124.916 249.722Z" fill="#F50062"/>
<path d="M126.135 327.707L86.753 260.433L47.371 193.159L125.323 192.69L203.275 192.221L164.705 259.964L126.135 327.707Z" fill="#F50062"/>
<path d="M125.917 169.007C150.617 169.007 170.641 148.983 170.641 124.283C170.641 99.5819 150.617 79.5581 125.917 79.5581C101.216 79.5581 81.1921 99.5819 81.1921 124.283C81.1921 148.983 101.216 169.007 125.917 169.007Z" fill="white"/>
</svg>
