<!-- <svg viewBox="0 0 200 200" xmlns="http://www.w3.org/2000/svg">
  <path fill="#F50062" d="M22.2,-33.1C34.1,-26.8,52.7,-29.7,57.1,-24.7C61.4,-19.8,51.5,-6.9,40,-1C28.6,4.8,15.8,3.7,9.1,3.3C2.3,2.9,1.7,3.2,-2.6,15.7C-6.9,28.2,-14.9,52.9,-20,56.6C-25.2,60.4,-27.5,43.1,-37.8,32.2C-48.1,21.3,-66.4,16.7,-73.5,6.9C-80.6,-2.9,-76.6,-18.1,-65.7,-25C-54.7,-31.9,-36.8,-30.6,-24.7,-36.8C-12.6,-43,-6.3,-56.7,-0.6,-55.8C5.1,-54.9,10.3,-39.4,22.2,-33.1Z" transform="translate(100 100)" />
</svg> -->
<svg viewBox="0 0 200 200" xmlns="http://www.w3.org/2000/svg">
  <path fill="#F50062" d="M26.2,-36.9C38.3,-32.9,55.6,-33.1,54.7,-27.3C53.8,-21.4,34.8,-9.6,23.3,-3.4C11.9,2.8,8.1,3.3,5.5,2.9C2.9,2.6,1.5,1.4,-3.8,16.2C-9,31,-18.1,61.8,-27.2,69.7C-36.3,77.5,-45.4,62.4,-42.3,47.2C-39.1,31.9,-23.6,16.5,-17,7.5C-10.4,-1.5,-12.7,-4.2,-13.2,-7.3C-13.7,-10.4,-12.5,-14,-10,-22.4C-7.5,-30.7,-3.8,-43.9,1.6,-46.5C7,-49,14,-40.9,26.2,-36.9Z" transform="translate(100 100)" />
</svg>